<svg xmlns="http://www.w3.org/2000/svg" width="72" height="73.997" viewBox="0 0 72 73.997"><defs><style>.a{fill:#4fdccf;}</style></defs><g transform="translate(611 -264.001)"><g transform="translate(-613.435 262.22)"><path class="a" d="M49.24,23.894a1.528,1.528,0,0,0,0-3.055H35.063a1.528,1.528,0,1,0,0,3.055h.03V50.308h-.03a1.528,1.528,0,1,0,0,3.055H49.24a1.528,1.528,0,0,0,0-3.055h-.03V23.894Z" transform="translate(16.411 10.057)"/><path class="a" d="M7.846,27.7h57.09a1.515,1.515,0,0,0,1.436-1.023,1.5,1.5,0,0,0-.474-1.7L37.345,2.114a1.538,1.538,0,0,0-1.91,0L6.883,24.983A1.526,1.526,0,0,0,7.846,27.7Z" transform="translate(2.044)"/><path class="a" d="M6.843,47.274H66.988a1.528,1.528,0,1,0,0-3.055H6.843a1.528,1.528,0,1,0,0,3.055Z" transform="translate(1.52 22.394)"/><path class="a" d="M22.89,23.894a1.528,1.528,0,1,0,0-3.055H8.713a1.528,1.528,0,1,0,0,3.055h.031V50.308H8.713a1.528,1.528,0,1,0,0,3.055H22.89a1.528,1.528,0,1,0,0-3.055h-.031V23.894Z" transform="translate(2.507 10.057)"/><path class="a" d="M36.054,23.894a1.528,1.528,0,1,0,0-3.055H21.893a1.528,1.528,0,0,0,0,3.055h.015V50.308h-.015a1.528,1.528,0,1,0,0,3.055H36.054a1.528,1.528,0,1,0,0-3.055h-.031V23.894Z" transform="translate(9.461 10.057)"/><path class="a" d="M72.907,48.219H3.963a1.528,1.528,0,0,0,0,3.055H72.907a1.528,1.528,0,0,0,0-3.055Z" transform="translate(0 24.505)"/></g></g></svg>