<svg xmlns="http://www.w3.org/2000/svg" width="72" height="52.028" viewBox="0 0 72 52.028"><defs><style>.a{fill:#f9663e;}</style></defs><g transform="translate(-2.491 -15.6)"><g transform="translate(2.491 15.6)"><path class="a" d="M17.408,39.3H11.567a8.244,8.244,0,0,0-8.224,7.3L2.5,53.365A1.831,1.831,0,0,0,3.8,55.286c1.23.231,2.459.461,3.766.615l.922,15.832a2.367,2.367,0,0,0,2.383,2.229H18.1a2.421,2.421,0,0,0,2.383-2.229L21.328,55.9c1.307-.154,2.536-.384,3.766-.615A1.665,1.665,0,0,0,26.4,53.365L25.555,46.6A8.169,8.169,0,0,0,17.408,39.3Z" transform="translate(-2.491 -21.935)"/><circle class="a" cx="7.839" cy="7.839" r="7.839" transform="translate(4.158)"/><path class="a" d="M50.264,51h-4.3a6.158,6.158,0,0,0-6.149,5.457l-.615,5a1.254,1.254,0,0,0,1,1.383c.922.231,1.845.307,2.767.461l.692,11.759a1.761,1.761,0,0,0,1.768,1.614h5.3a1.761,1.761,0,0,0,1.768-1.614L53.185,63.3c.922-.154,1.921-.307,2.767-.461a1.324,1.324,0,0,0,1-1.383l-.538-5.073A6.155,6.155,0,0,0,50.264,51Z" transform="translate(-11.582 -24.643)"/><circle class="a" cx="6.533" cy="6.533" r="6.533" transform="translate(29.998 11.884)"/><path class="a" d="M87.6,51.29a4.205,4.205,0,0,1-.307-2.383l.692-5.687a3.518,3.518,0,0,0-3.459-3.92h-8.3a3.475,3.475,0,0,0-3.459,3.92c.231,2,.538,4.3.692,5.687a5.118,5.118,0,0,1-.307,2.383l-3.3,7.686a2.194,2.194,0,0,0,1.845,3.074l3.151.307,1.23,9.53a2.32,2.32,0,0,0,2.306,2h4.15a2.32,2.32,0,0,0,2.306-2l1.23-9.53,3.151-.307a2.266,2.266,0,0,0,1.845-3.074Z" transform="translate(-19.209 -21.935)"/><circle class="a" cx="7.839" cy="7.839" r="7.839" transform="translate(53.323)"/></g></g></svg>