<svg xmlns="http://www.w3.org/2000/svg" width="73.002" height="73" viewBox="0 0 73.002 73"><defs><style>.a{fill:#737cce;}.b,.c{fill:none;stroke:#f7f7f7;stroke-linecap:round;stroke-width:2.5px;}.b{stroke-linejoin:round;}</style></defs><g transform="translate(67 -139.685)"><g transform="translate(-67.316 139.685)"><g transform="translate(0 0)"><path class="a" d="M41.187,77.685a36.5,36.5,0,1,1,36.5-36.5A36.543,36.543,0,0,1,41.187,77.685Zm0-64.081a27.581,27.581,0,1,0,27.58,27.582A27.612,27.612,0,0,0,41.187,13.6Z" transform="translate(-4.368 -4.685)"/></g><ellipse class="a" cx="23.5" cy="24" rx="23.5" ry="24" transform="translate(13.316 13)"/><path class="b" d="M37.252,54.556V37.127L52.343,54.556V37.127" transform="translate(-8.031 -8.448)"/><path class="c" d="M34.627,40H58.22" transform="translate(-9.869 -7.131)"/><path class="c" d="M34.627,40H58.22" transform="translate(-9.869 2.067)"/></g></g></svg>