<svg xmlns="http://www.w3.org/2000/svg" width="72" height="60.924" viewBox="0 0 72 60.924"><defs><style>.a{fill:#f4c300;}</style></defs><g transform="translate(175.333 -271.256)"><g transform="translate(-177.333 265.564)"><path class="a" d="M19.929,36.6H30.665V34.465a3.973,3.973,0,0,1,3.957-4h5.321a3.97,3.97,0,0,1,3.942,4V36.6H54.363a10.263,10.263,0,0,0,9.556-6.5L70.5,14.733a6.423,6.423,0,0,0-3.924-1.356h-17.1V9.807a4.292,4.292,0,0,0-4.441-4.115H29.258a4.292,4.292,0,0,0-4.441,4.115v3.57H7.7a6.422,6.422,0,0,0-4.028,1.448l6.7,15.271A10.263,10.263,0,0,0,19.929,36.6ZM27.815,9.807c0-.59.662-1.087,1.443-1.087H45.034c.782,0,1.443.5,1.443,1.087v3.57H27.815Z" transform="translate(0.86)"/><path class="a" d="M73.493,13.453,67.578,27.088a13.255,13.255,0,0,1-12.343,8.3H44.75v1.964a3.945,3.945,0,0,1-3.945,3.937H35.48a3.949,3.949,0,0,1-3.96-3.937V35.384H20.777a13.255,13.255,0,0,1-12.343-8.3L2.455,13.626A6.473,6.473,0,0,0,2,15.975V56.087a6.551,6.551,0,0,0,6.54,6.541H67.46A6.542,6.542,0,0,0,74,56.087V15.975A6.516,6.516,0,0,0,73.493,13.453Z" transform="translate(0 3.988)"/></g></g></svg>